<svg xmlns="http://www.w3.org/2000/svg" xmlns:xlink="http://www.w3.org/1999/xlink" version="1.1" x="0px" y="0px" viewBox="0 0 100 125" enable-background="new 0 0 100 100" xml:space="preserve"><g><g><path d="M7.411,39.918c-0.397-0.016-0.748-0.265-0.892-0.635c-0.145-0.37-0.057-0.791,0.225-1.072    c0.678-0.676,6.911-6.769,10.159-6.327c12.728,1.651,18.548,13.507,19.312,15.186c0.113,0.162-0.663,1.358-1.167,1.134    C34.199,47.826,17.666,40.319,7.411,39.918z M9.773,38.109c8.043,0.983,18.423,5.23,23.298,7.383    c-2.323-3.762-7.636-10.484-16.427-11.626C15.212,33.689,12.124,36.019,9.773,38.109z"/><path d="M55.488,49.991c-4.361-0.893-13.435-2.752-16.633-0.294c-0.437,0.337-2.459-1.398-2.178-1.874    c2.414-4.096,7.256-6.572,12.344-6.293c4.867,0.261,8.825,2.985,10.86,7.475c0.155,0.343,0.181,0.899-0.131,1.106    C58.812,50.734,57.22,50.346,55.488,49.991z M57.229,48.302c-1.852-2.871-4.803-4.586-8.314-4.774    c-3.476-0.178-6.902,1.181-9.148,3.519C43.625,46,49.896,46.167,57.229,48.302z"/><path d="M39.437,87.458c-1.072-0.268-1.901-1.146-1.555-2.195c6.578-19.927,0.853-31.434-3.146-36.519    c-0.683-0.868-0.532-2.126,0.336-2.809c0.869-0.683,2.126-0.532,2.809,0.336c4.494,5.716,10.964,18.545,3.8,40.245    C41.404,87.358,40.187,87.646,39.437,87.458z"/><path d="M20.79,67.095c-0.008,0-0.016,0-0.024,0c-0.449-0.002-0.849-0.309-0.967-0.742c-1.144-4.177,0.153-9.266,3.469-13.612    c2.966-3.888,6.932-6.303,10.35-6.303c1.011,0,1.967,0.204,2.843,0.608c0.389,0.18,0.721,0.635,0.584,1.246    c-0.081,0.363-0.295,1.328-7.861,10.053C21.721,66.952,21.26,67.095,20.79,67.095z M24.857,53.953    c-2.471,3.238-3.691,6.89-3.437,10.098c3.158-3.384,11.193-12.593,13.235-15.508C32.203,47.891,27.414,50.603,24.857,53.953z"/><path d="M36.309,48.509c-0.071,0-0.144-0.008-0.215-0.023c-0.361-0.079-0.649-0.352-0.748-0.707    c-0.032-0.114-3.078-11.5,7.179-17.341c1.009-0.575,2.265-0.866,3.732-0.866c2.219,0,4.187,0.669,4.27,0.697    c0.313,0.107,0.552,0.362,0.639,0.682c0.087,0.319,0.011,0.661-0.204,0.912L37.07,48.157    C36.878,48.383,36.598,48.509,36.309,48.509z M43.515,32.176c-6.402,3.931-6.893,9.89-6.583,13.062l11.465-13.449    C47.782,31.671,45.531,30.938,43.515,32.176z"/></g><path d="M35.875,57.767c-2.039,0-3.697-1.757-3.697-3.916c0-2.16,1.658-3.917,3.697-3.917c2.038,0,3.696,1.757,3.696,3.917   C39.572,56.01,37.914,57.767,35.875,57.767z M35.875,51.934c-0.936,0-1.697,0.86-1.697,1.917s0.761,1.916,1.697,1.916   s1.696-0.859,1.696-1.916S36.811,51.934,35.875,51.934z"/><path d="M42.684,53.603c-2.037,0-3.694-1.566-3.694-3.492s1.657-3.493,3.694-3.493s3.693,1.567,3.693,3.493   S44.721,53.603,42.684,53.603z M42.684,48.617c-0.934,0-1.694,0.67-1.694,1.493s0.76,1.492,1.694,1.492   c0.934,0,1.693-0.669,1.693-1.492S43.618,48.617,42.684,48.617z"/><path d="M7.896,93.965c-0.666,0-1.317-0.332-1.697-0.938c-0.586-0.936-0.303-2.17,0.633-2.757   c4.138-2.591,16.438-6.353,33.324-6.23c7.098,0.067,13.689,0.95,18.56,2.487c1.053,0.332,1.638,1.456,1.305,2.509   c-0.332,1.054-1.453,1.641-2.509,1.306c-4.503-1.421-10.68-2.238-17.394-2.302c-15.951-0.174-27.567,3.368-31.163,5.621   C8.626,93.866,8.259,93.965,7.896,93.965z"/><path d="M74.036,40.563c-7.728,0-14.015-6.287-14.015-14.015s6.287-14.015,14.015-14.015S88.05,18.821,88.05,26.549   S81.763,40.563,74.036,40.563z M74.036,16.534c-5.522,0-10.015,4.492-10.015,10.015s4.493,10.015,10.015,10.015   S84.05,32.071,84.05,26.549S79.558,16.534,74.036,16.534z"/><path d="M74.088,15.089c-0.002,0-0.004,0-0.006,0c-0.829-0.003-1.498-0.678-1.494-1.506l0.022-5.554   c0.003-0.826,0.674-1.494,1.5-1.494c0.002,0,0.004,0,0.006,0c0.829,0.003,1.498,0.678,1.494,1.506l-0.022,5.554   C75.584,14.421,74.914,15.089,74.088,15.089z"/><path d="M64.909,18.848c-0.386,0-0.771-0.148-1.065-0.443l-3.912-3.943c-0.583-0.589-0.58-1.538,0.009-2.121   c0.588-0.586,1.537-0.579,2.121,0.008l3.912,3.943c0.583,0.589,0.58,1.538-0.009,2.121C65.672,18.703,65.291,18.848,64.909,18.848z   "/><path d="M61.076,27.996c-0.002,0-0.004,0-0.006,0l-5.554-0.021c-0.828-0.003-1.498-0.678-1.494-1.506   c0.003-0.826,0.674-1.494,1.5-1.494c0.002,0,0.004,0,0.006,0l5.554,0.021c0.828,0.003,1.498,0.678,1.494,1.506   C62.572,27.328,61.901,27.996,61.076,27.996z"/><path d="M60.892,41.087c-0.386,0-0.771-0.148-1.065-0.443c-0.583-0.589-0.58-1.538,0.009-2.121l3.943-3.912   c0.588-0.583,1.537-0.578,2.121,0.009c0.583,0.589,0.58,1.538-0.009,2.121l-3.943,3.911C61.655,40.942,61.273,41.087,60.892,41.087   z"/><path d="M73.961,46.563c-0.002,0-0.004,0-0.006,0c-0.829-0.003-1.498-0.678-1.494-1.506l0.022-5.554   c0.003-0.826,0.674-1.494,1.5-1.494c0.002,0,0.004,0,0.006,0c0.829,0.003,1.498,0.678,1.494,1.506l-0.022,5.554   C75.458,45.895,74.787,46.563,73.961,46.563z"/><path d="M87.074,41.192c-0.386,0-0.771-0.148-1.065-0.443l-3.911-3.942c-0.583-0.588-0.58-1.538,0.008-2.121   c0.588-0.585,1.538-0.579,2.122,0.008l3.911,3.942c0.583,0.588,0.58,1.538-0.008,2.121C87.838,41.048,87.456,41.192,87.074,41.192z   "/><path d="M92.55,28.123c-0.002,0-0.004,0-0.006,0l-5.554-0.022c-0.829-0.003-1.498-0.678-1.494-1.506   c0.003-0.826,0.674-1.494,1.5-1.494c0.002,0,0.004,0,0.006,0l5.554,0.022c0.829,0.003,1.498,0.678,1.494,1.506   C94.046,27.455,93.375,28.123,92.55,28.123z"/><path d="M83.237,18.922c-0.386,0-0.771-0.147-1.065-0.443c-0.583-0.588-0.58-1.538,0.008-2.121l3.943-3.912   c0.588-0.585,1.538-0.581,2.122,0.008c0.583,0.588,0.58,1.538-0.008,2.121l-3.943,3.912C84.001,18.777,83.619,18.922,83.237,18.922   z"/><path d="M92.347,91.792c-1.85,0-3.528-0.663-4.748-1.735c-1.22,1.071-2.897,1.734-4.746,1.734s-3.527-0.663-4.747-1.735   c-1.22,1.071-2.897,1.734-4.746,1.734c-2.539,0-4.563-0.54-5.898-1.506c-2.56,1.335-6.659,0.821-9.796,0.099   c-1.076-0.248-1.748-1.321-1.5-2.398c0.248-1.076,1.325-1.743,2.398-1.5c4.604,1.059,6.635,0.513,7.106,0.225   c0.081-1.03,0.942-1.842,1.994-1.842c1.104,0,2,0.896,2,2c0.123,0.295,1.358,0.923,3.697,0.923c1.489,0,2.746-0.907,2.746-1.981   c0-1.104,0.896-2,2-2s2,0.896,2,2c0,1.074,1.257,1.982,2.746,1.982S85.6,86.884,85.6,85.81c0-1.104,0.896-2,2-2s2,0.896,2,2   c0,1.075,1.258,1.983,2.748,1.983c1.104,0,2,0.896,2,2S93.451,91.792,92.347,91.792z"/></g><text x="0" y="115" fill="#000000" font-size="5px" font-weight="bold" font-family="'Helvetica Neue', Helvetica, Arial-Unicode, Arial, Sans-serif">Created by H Alberto Gongora</text><text x="0" y="120" fill="#000000" font-size="5px" font-weight="bold" font-family="'Helvetica Neue', Helvetica, Arial-Unicode, Arial, Sans-serif">from the Noun Project</text></svg>