<svg xmlns="http://www.w3.org/2000/svg" xmlns:xlink="http://www.w3.org/1999/xlink" xml:space="preserve" style="shape-rendering:geometricPrecision;text-rendering:geometricPrecision;image-rendering:optimizeQuality;" viewBox="0 0 0.305087 0.39291875" x="0px" y="0px" fill-rule="evenodd" clip-rule="evenodd"><defs><style type="text/css">
   
    .fil0 {fill:black}
   
  </style></defs><g><path class="fil0" d="M0.148628 0.00413774c0.000196848,-0.0056889 0.00744479,-0.00533851 0.00783848,0l0 0.021106c0.078125,0.0010866 0.141746,0.0360743 0.14862,0.0805226l-0.000972428 0c-0.00321256,-0.0104211 -0.0130431,-0.0180037 -0.0246729,-0.0180037 -0.0111967,0 -0.0207202,0.00702747 -0.0242792,0.0168462 0.000208659,-0.0197084 -0.00900382,-0.0358027 -0.0263382,-0.0488025 -0.0172439,-0.0129329 -0.0425467,-0.0228029 -0.0746132,-0.0301571l-0.0033346 0c-0.0320665,0.00735424 -0.0573693,0.0172242 -0.0746132,0.0301571 -0.0173344,0.0129998 -0.0265469,0.0290941 -0.0263382,0.0488025 -0.00355901,-0.00981877 -0.0130825,-0.0168462 -0.0242792,-0.0168462 -0.0116298,0 -0.0214604,0.00758258 -0.0246729,0.0180037l-0.000972428 0c0.00687393,-0.0444522 0.0704991,-0.0794399 0.148628,-0.0805226l0 -0.021106z"/><path class="fil0" d="M0.14388 0.0286925c-0.0282949,0.00707865 -0.0507789,0.0162872 -0.066444,0.0280311 -0.0170116,0.0127557 -0.0259603,0.028539 -0.025539,0.0478813l4.72435e-005 -0.000145667c0.00327161,-0.00964554 0.0122557,-0.0167084 0.0229997,-0.0173029 0.000480309,-2.75587e-005 0.000968491,-4.33065e-005 0.00146061,-4.33065e-005 0.0112203,0 0.0207635,0.0070629 0.0243068,0.0169171 0.000106298,-0.0040157 -0.000334641,-0.00806289 -0.000783454,-0.0121416 -0.00206297,-0.0186966 -0.00422435,-0.0382554 0.0439522,-0.063196z"/><path class="fil0" d="M0.151553 0.0270587c-0.0539324,0.0259721 -0.0517552,0.0457514 -0.0496726,0.0646173 0.000476372,0.0043149 0.00094487,0.00859438 0.000775581,0.0129172 0.00337791,-0.0101534 0.0130746,-0.0174801 0.0245076,-0.0174801 0.00895658,0 0.0168462,0.00449994 0.0214643,0.0113266l0 0.17547 -0.000901563 0c0.00289366,0.0409286 -0.0445821,0.0410782 -0.0416766,0l-0.00944082 0c-0.00271256,0.0537198 0.0630189,0.0540702 0.0605622,0l-0.000704715 0 0 -0.175482c0.00462199,-0.00682275 0.0125038,-0.0113148 0.0214564,-0.0113148 0.0114329,0 0.0211296,0.00732668 0.0245076,0.0174801 -0.000169289,-0.00432278 0.000299209,-0.00860225 0.000775581,-0.0129172 0.00208265,-0.0188659 0.00425979,-0.0386452 -0.0496726,-0.0646173l-1.18109e-005 0.0669322 -0.00195667 0 -1.18109e-005 -0.0669322z"/><path class="fil0" d="M0.161207 0.0286925c0.0282949,0.00707865 0.0507789,0.0162872 0.066444,0.0280311 0.0170116,0.0127557 0.0259603,0.028539 0.025539,0.0478813l-4.72435e-005 -0.000145667c-0.00327161,-0.00964554 -0.0122557,-0.0167084 -0.0229997,-0.0173029 -0.000480309,-2.75587e-005 -0.000968491,-4.33065e-005 -0.00146061,-4.33065e-005 -0.0112203,0 -0.0207635,0.0070629 -0.0243068,0.0169171 -0.000106298,-0.0040157 0.000334641,-0.00806289 0.000783454,-0.0121416 0.00206297,-0.0186966 0.00422435,-0.0382554 -0.0439522,-0.063196z"/></g><text x="0" y="15.314335" fill="#000000" font-size="5px" font-weight="bold" font-family="'Helvetica Neue', Helvetica, Arial-Unicode, Arial, Sans-serif">Created by Andy Mc</text><text x="0" y="20.314335" fill="#000000" font-size="5px" font-weight="bold" font-family="'Helvetica Neue', Helvetica, Arial-Unicode, Arial, Sans-serif">from the Noun Project</text></svg>